<svg width="100%" height="auto" viewBox="0 0 24 15" fill="none" xmlns="http://www.w3.org/2000/svg">
<g clip-path="url(#clip0_1_100)">
<path d="M23.7686 9.95175L20.4415 7.33693C20.2379 7.17734 20.2379 6.91528 20.4415 6.75521L23.7688 4.14103C23.9731 3.98111 24.0584 3.71092 23.9587 3.54095C23.8588 3.37146 23.5798 3.31113 23.3395 3.40689L19.3831 4.98274C19.1426 5.07945 18.9159 4.94763 18.8799 4.69068L18.2849 0.466977C18.2482 0.210188 18.0551 0 17.8551 0C17.6561 0 17.4631 0.210188 17.4274 0.466817L16.8321 4.69084C16.7957 4.94779 16.5694 5.07929 16.3286 4.9829L12.4376 3.43322C12.1963 3.33715 11.8032 3.33715 11.5626 3.43322L7.67099 4.9829C7.43032 5.07929 7.20369 4.94779 7.16762 4.69084L6.57313 0.466817C6.53642 0.210188 6.34363 0 6.14446 0C5.94464 0 5.75137 0.210188 5.71546 0.466817L5.12017 4.69084C5.0841 4.94779 4.85764 5.07929 4.61697 4.9829L0.660749 3.40737C0.420238 3.31113 0.141744 3.37178 0.0418368 3.54111C-0.0579105 3.71124 0.027154 3.98159 0.230798 4.14119L3.55837 6.75537C3.76217 6.91544 3.76217 7.1775 3.55837 7.33725L0.230798 9.95175C0.0265156 10.1117 -0.0580701 10.398 0.0415176 10.5876C0.141584 10.7775 0.420079 10.8538 0.66027 10.7574L4.58106 9.18282C4.82205 9.08658 5.04612 9.21761 5.07979 9.47456L5.6454 13.7351C5.67955 13.9916 5.90363 14.2016 6.14334 14.2016C6.38273 14.2016 6.60697 13.9918 6.64128 13.7351L7.20784 9.47456C7.24136 9.21761 7.46639 9.08674 7.7061 9.18282L11.5626 10.7306C11.8029 10.8273 12.1962 10.8273 12.4367 10.7306L16.2925 9.18282C16.5325 9.08658 16.7569 9.21761 16.7912 9.47456L17.3578 13.7351C17.3916 13.9916 17.6159 14.2016 17.8549 14.2016C18.0947 14.2016 18.3189 13.9918 18.3529 13.7351L18.9195 9.47456C18.9539 9.21761 19.178 9.08674 19.418 9.18282L23.3393 10.7574C23.5787 10.8538 23.858 10.7773 23.9579 10.5877C24.058 10.3985 23.9729 10.1121 23.7688 9.95223L23.7686 9.95175ZM15.3037 7.37013L12.3735 9.62601C12.1684 9.78401 11.832 9.78401 11.6275 9.62601L8.69639 7.37013C8.49147 7.21213 8.48988 6.95199 8.6932 6.79159L11.6298 4.47857C11.8331 4.31818 12.1665 4.31818 12.37 4.47857L15.3065 6.79159C15.5103 6.95183 15.5087 7.21197 15.3033 7.37029L15.3037 7.37013Z" fill="currentColor"/>
</g>
<defs>
<clipPath id="clip0_1_100">
<rect width="24" height="14.2018" fill="white"/>
</clipPath>
</defs>
</svg>
